<?xml version="1.0" standalone="no"?>
<!DOCTYPE svg PUBLIC "-//W3C//DTD SVG 20010904//EN"
 "http://www.w3.org/TR/2001/REC-SVG-20010904/DTD/svg10.dtd">
<svg version="1.0" xmlns="http://www.w3.org/2000/svg"
 width="150.000000pt" height="150.000000pt" viewBox="0 0 150.000000 150.000000"
 preserveAspectRatio="xMidYMid meet">

<g transform="translate(0.000000,150.000000) scale(0.100000,-0.100000)"
fill="#000000" stroke="none">
<path d="M745 1450 c-4 -6 -14 -8 -24 -5 -9 3 -26 -2 -37 -10 -10 -8 -25 -15
-32 -15 -14 0 -75 -40 -81 -54 -2 -4 -14 -18 -27 -29 -13 -11 -24 -25 -24 -31
0 -6 23 -26 50 -44 63 -40 66 -34 4 8 -46 32 -52 52 -19 58 11 3 43 -22 91
-69 56 -56 75 -69 79 -57 4 10 -15 48 -50 101 -58 87 -63 113 -19 104 16 -3
24 0 24 9 0 13 4 16 33 18 6 1 15 -15 18 -34 l6 -35 2 37 c1 40 11 51 36 42
12 -5 15 -16 11 -53 l-5 -46 10 43 c7 28 16 42 27 42 9 1 -1 7 -23 15 -48 18
-42 17 -50 5z m-78 -151 c29 -41 52 -81 53 -89 0 -8 -35 20 -77 62 -67 67 -75
79 -63 93 7 8 18 14 24 12 6 -2 34 -37 63 -78z"/>
<path d="M840 1407 c0 -16 3 -17 15 -7 17 14 45 6 45 -13 0 -8 -23 -45 -52
-83 -29 -38 -45 -64 -37 -57 8 6 33 37 54 67 40 55 70 70 82 40 3 -8 -5 -27
-18 -42 l-24 -27 27 24 c15 13 34 21 42 18 22 -9 20 -44 -1 -51 -10 -4 -29
-16 -43 -27 -19 -16 -14 -15 20 5 25 14 47 33 48 41 4 17 -55 85 -73 85 -6 0
-15 8 -22 19 -6 10 -23 21 -37 23 -21 4 -26 1 -26 -15z"/>
<path d="M812 1335 c-30 -62 -27 -71 4 -12 14 27 24 51 22 53 -3 2 -14 -17
-26 -41z"/>
<path d="M772 1320 c0 -14 2 -19 5 -12 2 6 2 18 0 25 -3 6 -5 1 -5 -13z"/>
<path d="M746 1293 c2 -11 7 -29 11 -39 5 -13 3 -15 -7 -9 -9 6 -11 4 -6 -4 5
-7 -4 -38 -18 -70 -43 -95 -43 -115 -7 -152 18 -17 30 -36 27 -43 -3 -7 -5 -7
-5 2 -2 31 -23 5 -60 -73 -24 -51 -46 -85 -55 -85 -28 0 -28 21 1 63 39 58 45
67 40 67 -3 0 -22 -25 -42 -55 -31 -45 -44 -55 -67 -55 -15 0 -28 3 -28 8 0
10 153 162 163 162 5 0 5 -4 2 -10 -3 -5 2 -10 12 -10 16 0 16 1 0 17 -16 17
-22 12 -115 -79 -53 -53 -107 -99 -119 -103 -12 -3 -38 -24 -57 -46 -32 -38
-35 -39 -41 -19 -4 12 -9 20 -11 17 -8 -8 46 -106 64 -117 15 -8 15 -11 2 -20
-8 -5 -29 -10 -46 -10 -19 0 -39 -9 -54 -25 -20 -21 -22 -31 -17 -75 5 -43 4
-50 -11 -50 -10 -1 -4 -6 13 -14 25 -10 34 -10 50 0 12 8 34 13 51 11 27 -2
30 -5 25 -27 -3 -17 -6 -20 -9 -8 -5 27 -34 31 -63 9 -17 -13 -30 -17 -34 -11
-3 6 -11 10 -17 10 -5 0 0 -9 13 -19 23 -18 24 -18 31 -2 3 10 16 21 27 24 16
4 25 -2 36 -23 8 -16 24 -35 36 -44 12 -8 18 -19 15 -25 -4 -5 -2 -12 3 -15 5
-4 12 -2 15 3 3 5 34 -3 68 -17 49 -20 85 -27 164 -30 115 -5 185 10 272 59
28 16 52 25 52 20 0 -5 11 0 25 12 21 19 22 24 10 33 -21 15 -19 24 5 24 11 0
29 -9 39 -19 17 -17 21 -18 32 -5 6 8 20 14 31 14 18 0 18 -3 -8 -49 -15 -28
-37 -59 -49 -71 l-22 -21 -31 26 c-34 29 -45 31 -61 11 -10 -12 -9 -21 3 -43
8 -15 16 -26 16 -23 6 24 5 50 -2 50 -5 0 -6 5 -2 11 7 11 54 -31 54 -49 0
-25 -155 -86 -255 -101 -52 -7 -55 -9 -20 -10 22 -1 51 -4 65 -6 22 -5 23 -4
5 5 -16 8 -12 9 20 5 24 -3 33 -1 21 3 -15 7 -11 10 21 20 52 16 66 14 28 -3
-16 -8 -25 -14 -18 -15 30 -1 127 53 174 97 47 44 109 134 109 158 -1 6 -7 -1
-15 -15 -17 -29 -19 -22 -5 14 9 25 8 26 -18 20 -15 -4 -33 -10 -41 -14 -9 -5
-25 -2 -37 7 -32 20 -67 13 -69 -14 -1 -12 2 -20 7 -17 4 3 8 1 8 -5 0 -5 -5
-13 -10 -16 -5 -3 -10 -1 -10 5 0 7 -13 0 -30 -13 -16 -14 -56 -36 -87 -49
-50 -20 -75 -23 -183 -22 -133 0 -189 14 -267 67 -51 34 -39 40 15 7 57 -36
185 -70 261 -70 120 0 273 63 279 114 4 32 42 44 85 28 35 -13 68 0 66 26 -1
15 -2 15 -6 0 -2 -9 -11 -19 -20 -22 -11 -5 -14 -2 -9 10 5 14 4 15 -8 5 -20
-17 -35 -6 -30 22 2 12 1 15 -2 7 -15 -32 -62 -41 -84 -15 -15 18 -7 19 19 3
23 -14 51 4 50 31 0 11 -3 9 -9 -6 -10 -25 -38 -31 -46 -10 -2 7 2 29 10 49
14 33 18 36 52 33 43 -4 54 -18 48 -60 l-4 -30 9 28 c6 16 7 35 4 43 -7 19
-38 35 -55 29 -14 -5 -46 11 -38 19 6 6 89 -9 97 -18 4 -4 10 -28 14 -54 l6
-47 2 47 c1 38 -3 50 -21 62 -12 9 -34 16 -48 16 -47 0 -55 13 -40 62 7 24 20
50 27 59 21 25 15 57 -14 83 -45 39 -173 138 -173 133 0 -3 43 -39 95 -81 72
-58 95 -82 95 -100 0 -13 -8 -27 -17 -30 -13 -5 -49 26 -144 126 -124 130
-158 180 -78 117 21 -17 39 -28 39 -26 0 3 -18 19 -39 36 l-39 31 -31 -31
c-17 -17 -28 -35 -25 -40 8 -14 -5 -61 -15 -55 -5 3 -15 -2 -22 -11 -10 -12
-10 -14 -1 -9 16 10 15 -13 -3 -44 -8 -14 -14 -28 -15 -31 0 -3 24 -6 53 -8
28 -1 56 -6 60 -10 5 -5 22 -2 39 6 34 17 112 13 131 -7 9 -10 7 -11 -12 -5
-47 14 -94 14 -117 -1 -18 -12 -27 -13 -44 -4 -14 7 -45 10 -82 7 -49 -5 -59
-3 -54 9 3 8 2 14 -3 14 -16 0 -21 -13 -10 -27 9 -10 6 -19 -15 -39 -18 -18
-23 -31 -16 -38 5 -7 7 -21 4 -33 -3 -11 -1 -24 5 -27 6 -4 9 -1 6 6 -3 7 -1
27 4 43 7 26 10 27 16 11 4 -10 4 -21 -2 -25 -5 -3 -9 -19 -8 -36 0 -16 -4
-38 -11 -48 -6 -10 -10 -27 -7 -38 4 -13 -1 -21 -18 -27 -13 -5 -18 -11 -11
-15 34 -22 108 106 93 161 -5 19 -2 38 12 65 16 30 24 37 49 37 25 0 28 -2 19
-14 -7 -8 -8 -17 -3 -20 5 -3 8 -43 7 -88 -2 -46 -1 -86 1 -90 4 -6 16 -2 53
19 2 2 -2 9 -8 17 -7 8 -10 20 -7 25 4 5 2 12 -4 16 -16 10 -12 25 6 18 9 -3
14 -13 11 -23 -2 -10 -1 -24 4 -31 13 -20 16 63 5 126 -2 17 -2 24 1 18 8 -20
22 -15 16 6 -3 10 0 22 6 25 6 4 11 2 11 -5 0 -10 3 -10 12 -1 7 7 18 12 26
12 12 0 12 -3 1 -17 -11 -15 -11 -16 1 -5 20 18 46 16 31 -2 -14 -17 3 -32 31
-28 9 2 20 -2 24 -9 5 -9 1 -10 -14 -7 -26 7 -27 0 -5 -27 14 -18 15 -19 9 -1
-5 16 -4 17 9 6 8 -7 12 -16 9 -21 -3 -5 0 -9 6 -9 12 0 4 60 -9 70 -13 9 -21
40 -11 40 18 0 40 -59 40 -107 0 -100 -48 -190 -94 -177 -17 4 -18 3 -6 -6 8
-6 24 -16 35 -22 18 -10 19 -10 6 5 -9 12 -10 17 -2 17 6 0 17 -11 23 -25 22
-50 -28 -101 -61 -61 -9 11 -9 15 1 19 10 4 8 10 -6 21 -24 20 -82 20 -161 1
-88 -22 -212 -20 -258 4 -24 12 -37 15 -37 7 0 -6 -7 -20 -15 -30 -20 -27 -40
-7 -31 29 5 19 12 25 22 21 8 -3 12 -2 9 3 -3 6 -20 7 -39 4 -21 -3 -36 -1
-41 7 -6 9 -4 11 6 5 8 -5 7 0 -3 12 -20 22 -24 38 -6 27 7 -4 8 -3 4 4 -4 7
-1 12 8 12 9 0 16 -4 16 -10 0 -5 5 -10 10 -10 22 0 9 26 -14 28 -31 2 -48
-19 -44 -54 2 -16 -2 -29 -11 -32 -10 -3 -12 0 -8 11 3 9 0 21 -8 27 -8 6 -16
21 -18 33 -4 22 -4 22 -6 1 0 -12 5 -27 13 -33 8 -7 12 -21 9 -31 -7 -27 -21
-25 -21 3 0 12 -4 34 -7 49 -5 19 -2 36 9 53 13 20 24 24 61 23 25 0 43 -3 40
-6 -3 -3 -20 -5 -39 -4 -22 1 -39 -5 -48 -16 -12 -15 -11 -16 4 -4 17 14 69
13 79 -1 4 -5 10 4 13 19 12 45 26 58 42 37 12 -16 13 -16 14 -1 0 10 -15 21
-42 30 -36 11 -44 18 -46 42 -4 30 15 76 30 76 5 0 6 -4 3 -10 -3 -5 -1 -10 4
-10 10 0 15 13 12 32 -1 9 57 28 84 28 12 0 42 -7 65 -15 54 -19 67 -10 106
80 15 35 32 62 36 59 4 -3 8 5 8 16 0 12 14 35 30 50 17 15 30 38 30 50 0 11
-13 53 -30 92 -34 80 -38 101 -9 46 27 -51 33 -48 9 5 -11 23 -20 50 -20 60 0
9 -4 17 -9 17 -5 0 -11 6 -14 13 -2 6 -3 2 -1 -10z m19 -142 c-4 -13 0 -23 12
-31 17 -10 17 -10 -2 -9 -35 2 -35 0 -3 -31 17 -16 26 -30 21 -30 -6 0 -16 7
-23 15 -22 26 -61 12 -44 -16 5 -8 9 -8 14 1 11 17 31 3 23 -16 -8 -20 -47
-14 -51 9 -2 10 0 26 4 35 4 9 8 22 9 27 6 30 18 55 27 55 5 0 7 10 3 23 -5
19 -5 20 5 4 6 -9 8 -26 5 -36z m211 -318 c-1 -2 -16 -1 -32 3 -22 4 -41 24
-82 82 -28 42 -52 82 -52 87 1 6 39 -30 85 -80 46 -49 83 -91 81 -92z m-122
82 c27 -42 47 -77 45 -79 -2 -2 -13 -6 -25 -10 -21 -6 -29 9 -80 147 -14 40
14 12 60 -58z m-103 -82 c-8 -15 -10 -15 -11 -2 0 17 10 32 18 25 2 -3 -1 -13
-7 -23z m-32 -83 c-11 -31 -23 -38 -34 -19 -7 10 22 47 37 48 4 1 2 -12 -3
-29z m127 19 c3 -6 0 -15 -7 -20 -11 -7 -10 -9 4 -9 9 0 17 -4 17 -10 0 -5 -4
-10 -10 -10 -14 0 -50 42 -44 52 7 12 32 10 40 -3z m164 1 c0 -5 -9 -10 -21
-10 -11 0 -17 5 -14 10 3 6 13 10 21 10 8 0 14 -4 14 -10z m67 -52 c-3 -8 -6
-5 -6 6 -1 11 2 17 5 13 3 -3 4 -12 1 -19z m-213 -23 c3 -8 2 -15 -3 -15 -5 0
-14 7 -21 15 -10 12 -10 15 3 15 8 0 17 -7 21 -15z m-151 -15 c3 -11 1 -20 -4
-20 -5 0 -9 9 -9 20 0 11 2 20 4 20 2 0 6 -9 9 -20z m-20 -78 c-6 -24 -23 -30
-23 -9 0 13 21 39 26 34 2 -2 1 -13 -3 -25z m141 12 c4 -10 1 -14 -6 -12 -15
5 -23 28 -10 28 5 0 13 -7 16 -16z m-4 -181 c0 -13 3 -14 11 -6 13 13 81 5 91
-11 11 -15 10 -20 -7 -42 -13 -18 -14 -17 -12 11 2 32 -23 44 -30 15 -4 -12
-3 -12 5 -1 6 8 12 9 16 3 8 -14 -11 -25 -31 -18 -9 4 -13 14 -10 26 4 16 2
17 -17 8 -11 -6 -28 -14 -36 -18 -18 -9 -20 -32 -2 -38 7 -2 10 2 6 11 -8 23
9 26 28 6 16 -17 16 -19 -17 -25 -59 -11 -71 15 -33 66 25 34 38 38 38 13z
m-252 -21 c5 -31 40 -49 59 -29 13 12 12 15 -6 20 -12 3 -19 1 -15 -4 3 -5 -2
-9 -10 -9 -18 0 -22 25 -5 36 6 3 15 2 21 -4 6 -6 17 -8 24 -5 21 8 18 -44 -3
-55 -26 -13 -55 0 -74 34 -9 16 -22 28 -29 26 -6 -1 -8 2 -5 8 11 18 40 6 43
-18z m198 0 c-3 -6 -22 -10 -41 -9 -19 1 -37 -2 -41 -6 -9 -8 3 -37 15 -37 6
0 8 6 5 14 -3 8 -1 17 5 21 6 3 11 -1 11 -9 0 -9 7 -16 15 -16 34 0 12 -16
-25 -18 -30 -2 -42 1 -47 14 -11 28 11 49 58 54 49 6 53 5 45 -8z m410 -60
c-45 -66 -140 -143 -175 -142 -9 1 2 10 24 22 48 24 131 102 152 141 8 16 17
26 20 23 3 -3 -6 -23 -21 -44z"/>
<path d="M850 1245 c-24 -25 -42 -45 -39 -45 3 0 25 20 49 45 24 25 42 45 39
45 -3 0 -25 -20 -49 -45z"/>
<path d="M1027 1257 c4 -17 -2 -25 -24 -34 l-28 -11 32 5 c20 3 40 0 50 -8 17
-13 17 -13 1 7 -10 11 -18 28 -18 37 0 9 -4 18 -9 21 -4 3 -6 -5 -4 -17z"/>
<path d="M480 1245 c0 -8 4 -15 10 -15 5 0 7 7 4 15 -4 8 -8 15 -10 15 -2 0
-4 -7 -4 -15z"/>
<path d="M452 1218 c-7 -7 -12 -21 -12 -33 0 -12 -6 -27 -12 -35 -11 -12 -10
-12 4 -1 12 9 37 11 80 7 l63 -5 -59 12 c-61 12 -77 27 -56 52 15 18 9 20 -8
3z"/>
<path d="M520 1220 c8 -5 20 -10 25 -10 6 0 3 5 -5 10 -8 5 -19 10 -25 10 -5
0 -3 -5 5 -10z"/>
<path d="M630 1226 c0 -2 14 -14 30 -26 17 -12 30 -19 30 -16 0 2 -13 14 -30
26 -16 12 -30 19 -30 16z"/>
<path d="M868 1214 c-38 -20 -36 -28 2 -9 17 9 30 18 30 20 0 7 -1 6 -32 -11z"/>
<path d="M570 1200 c8 -5 20 -10 25 -10 6 0 3 5 -5 10 -8 5 -19 10 -25 10 -5
0 -3 -5 5 -10z"/>
<path d="M696 1163 c-6 -14 -5 -15 5 -6 7 7 10 15 7 18 -3 3 -9 -2 -12 -12z"/>
<path d="M1060 1166 c0 -2 8 -10 18 -17 15 -13 16 -12 3 4 -13 16 -21 21 -21
13z"/>
<path d="M1008 1153 c6 -2 18 -2 25 0 6 3 1 5 -13 5 -14 0 -19 -2 -12 -5z"/>
<path d="M603 1143 c9 -2 23 -2 30 0 6 3 -1 5 -18 5 -16 0 -22 -2 -12 -5z"/>
<path d="M668 1133 c6 -2 18 -2 25 0 6 3 1 5 -13 5 -14 0 -19 -2 -12 -5z"/>
<path d="M848 1133 c6 -2 18 -2 25 0 6 3 1 5 -13 5 -14 0 -19 -2 -12 -5z"/>
<path d="M416 1104 c2 -12 -3 -27 -12 -34 -10 -9 -13 -22 -9 -41 3 -15 1 -36
-6 -47 -7 -11 -9 -30 -5 -45 l6 -27 88 47 c48 25 92 51 97 56 6 5 -31 -11 -81
-37 -49 -25 -93 -46 -97 -46 -14 0 -6 47 11 66 17 17 17 20 3 30 -13 10 -13
14 2 37 13 21 27 27 64 30 l48 3 -52 2 c-31 1 -53 7 -56 15 -2 6 -3 2 -1 -9z"/>
<path d="M563 1103 c15 -2 39 -2 55 0 15 2 2 4 -28 4 -30 0 -43 -2 -27 -4z"/>
<path d="M830 1080 c0 -16 4 -30 9 -30 5 0 7 9 4 21 -4 12 0 25 8 30 11 7 10
9 -3 9 -13 0 -18 -8 -18 -30z"/>
<path d="M993 1093 c15 -2 37 -2 50 0 12 2 0 4 -28 4 -27 0 -38 -2 -22 -4z"/>
<path d="M1076 1092 c-3 -6 1 -12 9 -16 8 -3 15 -17 15 -31 0 -24 -3 -26 -37
-21 l-38 5 37 -10 c25 -7 40 -19 48 -37 10 -25 10 -26 4 -2 -3 14 -5 38 -5 53
1 31 -23 74 -33 59z"/>
<path d="M658 1083 c7 -3 16 -2 19 1 4 3 -2 6 -13 5 -11 0 -14 -3 -6 -6z"/>
<path d="M588 1063 c7 -3 16 -2 19 1 4 3 -2 6 -13 5 -11 0 -14 -3 -6 -6z"/>
<path d="M638 1054 c-39 -21 -35 -28 5 -8 37 19 44 24 31 24 -5 -1 -21 -8 -36
-16z"/>
<path d="M525 1050 c-13 -5 -14 -9 -5 -9 8 0 24 4 35 9 13 5 14 9 5 9 -8 0
-24 -4 -35 -9z"/>
<path d="M860 1045 c0 -2 27 -18 60 -35 33 -17 60 -28 60 -25 0 2 -27 18 -60
35 -33 17 -60 28 -60 25z"/>
<path d="M968 1043 c7 -3 16 -2 19 1 4 3 -2 6 -13 5 -11 0 -14 -3 -6 -6z"/>
<path d="M455 1030 c-13 -5 -14 -9 -5 -9 8 0 24 4 35 9 13 5 14 9 5 9 -8 0
-24 -4 -35 -9z"/>
<path d="M644 1018 l-19 -23 25 20 c14 11 27 21 29 22 2 2 0 3 -6 3 -5 0 -18
-10 -29 -22z"/>
<path d="M599 983 c-13 -16 -12 -17 4 -4 9 7 17 15 17 17 0 8 -8 3 -21 -13z"/>
<path d="M488 900 c-48 -39 -92 -70 -98 -70 -5 0 -10 -5 -10 -11 0 -13 9 -8
113 74 75 60 95 78 85 77 -2 0 -42 -32 -90 -70z"/>
<path d="M1064 936 c11 -9 23 -16 27 -16 4 0 12 -13 18 -30 5 -16 13 -30 16
-30 3 0 -1 15 -8 33 -8 17 -12 39 -9 47 4 12 2 12 -8 3 -9 -9 -19 -9 -34 -2
-20 10 -20 10 -2 -5z"/>
<path d="M372 860 c0 -14 2 -19 5 -12 2 6 2 18 0 25 -3 6 -5 1 -5 -13z"/>
<path d="M530 810 c20 -13 33 -13 25 0 -3 6 -14 10 -23 10 -15 0 -15 -2 -2
-10z"/>
<path d="M488 785 c2 -14 6 -25 7 -25 1 0 5 11 7 25 3 16 1 25 -7 25 -8 0 -10
-9 -7 -25z"/>
<path d="M583 803 c4 -3 2 -12 -4 -19 -9 -11 -7 -15 7 -21 11 -3 22 -11 26
-17 4 -6 18 1 35 19 15 16 22 25 15 21 -7 -4 -20 -2 -28 5 -8 6 -17 9 -21 5
-3 -3 0 -6 8 -6 11 0 11 -2 -1 -10 -23 -15 -47 -13 -32 2 15 15 15 28 0 28 -6
0 -8 -3 -5 -7z"/>
<path d="M535 770 c3 -5 0 -10 -8 -10 -8 0 -21 -7 -28 -17 -13 -15 -10 -16 39
-10 37 4 51 3 46 -5 -5 -7 -2 -8 6 -3 10 6 9 11 -6 21 -10 7 -24 18 -31 24
-15 13 -26 13 -18 0z"/>
<path d="M759 763 c-13 -16 -12 -17 4 -4 9 7 17 15 17 17 0 8 -8 3 -21 -13z"/>
<path d="M457 748 c7 -8 10 -17 7 -20 -2 -3 2 -8 11 -12 13 -4 14 -2 5 14 -5
10 -16 22 -23 26 -9 6 -9 5 0 -8z"/>
<path d="M887 744 c-4 -4 -4 -17 -1 -30 3 -12 1 -47 -6 -78 -9 -43 -16 -56
-29 -56 -10 0 -24 -7 -31 -15 -22 -27 -29 -6 -27 86 l2 90 -30 -3 c-27 -3 -30
-6 -28 -33 1 -16 7 -31 13 -33 16 -6 11 -26 -10 -40 -11 -7 -20 -21 -20 -32 0
-34 -53 -83 -89 -83 -39 0 -61 20 -70 64 -6 31 -10 34 -44 35 -32 1 -35 -1
-25 -15 20 -26 21 -27 15 -8 -4 9 -3 17 2 17 4 0 12 -14 17 -31 17 -58 52 -74
163 -75 53 0 102 -3 108 -7 6 -4 14 -3 17 2 3 5 -14 14 -38 20 -48 12 -67 40
-46 66 16 19 34 19 50 0 8 -9 8 -15 2 -15 -6 0 -12 6 -15 13 -3 9 -9 8 -21 -3
-14 -14 -15 -18 -1 -35 13 -18 14 -18 15 -2 0 18 25 24 35 7 3 -5 12 -7 19 -4
8 3 17 0 22 -7 4 -7 3 -10 -2 -6 -6 3 -16 2 -24 -4 -13 -7 -12 -9 3 -9 9 0 17
-5 17 -10 0 -6 11 -8 25 -6 15 3 23 1 20 -5 -4 -5 -9 -8 -13 -5 -4 2 -16 0
-27 -5 -15 -6 -11 -8 17 -7 20 1 34 6 32 10 -3 4 7 8 22 8 29 0 25 14 -4 16
-10 1 -28 2 -41 3 -13 0 -21 4 -18 7 3 4 2 15 -4 25 -7 15 -6 17 6 13 17 -7
41 14 48 42 3 12 5 7 6 -13 0 -18 1 -36 2 -40 0 -4 -5 -9 -12 -12 -7 -2 -9 1
-4 9 5 9 4 11 -3 6 -21 -13 -13 -26 16 -26 15 1 39 -2 55 -6 22 -5 26 -3 21 9
-3 8 2 42 11 76 17 57 16 61 -1 98 -16 32 -25 38 -54 41 -20 2 -39 0 -43 -4z
m87 -60 c23 -22 20 -31 -3 -10 -24 22 -57 14 -66 -15 -4 -11 -9 -18 -12 -15
-3 3 2 17 11 31 19 28 47 32 70 9z m-4 -24 c8 -16 8 -20 -2 -18 -9 2 -15 -13
-18 -46 -3 -32 -10 -51 -20 -54 -13 -5 -13 -3 -1 12 12 14 12 17 1 14 -8 -2
-16 6 -18 17 -4 17 -2 18 12 6 9 -7 16 -9 16 -3 0 5 -7 12 -15 16 -18 7 -20
47 -3 64 18 18 36 15 48 -8z m-210 -90 c0 -5 -5 -10 -11 -10 -5 0 -7 5 -4 10
3 6 8 10 11 10 2 0 4 -4 4 -10z"/>
<path d="M935 659 c-4 -6 -5 -12 -2 -15 2 -3 7 2 10 11 7 17 1 20 -8 4z"/>
<path d="M501 706 c-15 -18 11 -40 39 -31 11 3 20 2 20 -3 0 -5 8 -12 19 -15
24 -6 36 -60 12 -54 -9 2 -15 9 -13 15 1 7 -3 12 -9 12 -6 0 -8 -7 -5 -16 3
-9 6 -23 7 -32 0 -11 2 -12 6 -4 7 18 31 15 36 -5 3 -10 5 -1 6 19 1 26 -7 45
-25 67 -17 21 -21 31 -12 31 8 0 23 7 34 15 18 13 18 14 -6 8 -14 -3 -29 -9
-35 -13 -5 -4 -23 -8 -38 -8 -20 0 -27 5 -23 14 7 18 2 18 -13 0z"/>
<path d="M442 695 c9 -10 21 -16 28 -13 7 2 -1 10 -16 17 -27 12 -28 11 -12
-4z"/>
<path d="M617 688 c-16 -8 -16 -11 -2 -31 8 -12 15 -32 15 -44 0 -13 4 -23 9
-23 17 0 21 34 8 72 -11 30 -16 35 -30 26z"/>
<path d="M1010 665 c0 -8 4 -15 10 -15 5 0 7 7 4 15 -4 8 -8 15 -10 15 -2 0
-4 -7 -4 -15z"/>
<path d="M1037 656 c-4 -10 -4 -23 0 -29 4 -7 -1 -6 -10 2 -17 14 -17 13 -42
-56 -6 -18 5 -43 18 -43 7 0 7 4 -1 12 -7 7 -12 17 -12 22 0 6 4 5 9 -3 13
-21 27 -6 41 43 12 45 10 87 -3 52z m-13 -69 c-3 -9 -11 -17 -16 -17 -6 0 -7
7 -4 16 3 9 6 21 6 27 0 8 3 8 10 1 6 -6 8 -18 4 -27z"/>
<path d="M457 597 c-3 -8 1 -14 9 -14 16 0 19 13 5 21 -5 3 -11 0 -14 -7z"/>
<path d="M460 564 c0 -11 42 -75 46 -71 7 7 -7 37 -17 37 -5 0 -9 6 -9 14 0 8
-4 18 -10 21 -5 3 -10 3 -10 -1z"/>
<path d="M511 554 c0 -11 3 -14 6 -6 3 7 2 16 -1 19 -3 4 -6 -2 -5 -13z"/>
<path d="M580 556 c0 -2 8 -10 18 -17 15 -13 16 -12 3 4 -13 16 -21 21 -21 13z"/>
<path d="M1073 553 c-7 -2 -13 -9 -13 -14 0 -5 9 -4 20 3 17 11 22 10 31 -2 9
-13 10 -13 6 0 -4 16 -24 22 -44 13z"/>
<path d="M520 521 c0 -6 3 -10 8 -9 4 1 22 -6 40 -16 19 -9 36 -15 39 -12 3 3
-12 13 -33 22 -22 10 -42 20 -46 22 -5 2 -8 -1 -8 -7z"/>
<path d="M250 506 c0 -2 8 -10 18 -17 15 -13 16 -12 3 4 -13 16 -21 21 -21 13z"/>
<path d="M748 493 c7 -3 16 -2 19 1 4 3 -2 6 -13 5 -11 0 -14 -3 -6 -6z"/>
<path d="M535 480 c3 -5 11 -10 16 -10 6 0 7 5 4 10 -3 6 -11 10 -16 10 -6 0
-7 -4 -4 -10z"/>
<path d="M624 479 c-3 -6 -15 -9 -25 -6 -10 3 -21 2 -24 -3 -7 -12 59 -19 70
-7 7 7 6 7 -4 2 -11 -6 -13 -4 -8 8 7 19 2 23 -9 6z"/>
<path d="M660 486 c0 -8 61 -12 66 -4 3 4 -11 8 -30 8 -20 0 -36 -2 -36 -4z"/>
<path d="M947 479 c7 -7 15 -10 18 -7 3 3 -2 9 -12 12 -14 6 -15 5 -6 -5z"/>
<path d="M744 468 c-7 -10 26 -9 51 2 16 7 14 9 -13 7 -19 -1 -36 -5 -38 -9z"/>
<path d="M1241 464 c0 -11 3 -14 6 -6 3 7 2 16 -1 19 -3 4 -6 -2 -5 -13z"/>
<path d="M251 454 c0 -11 3 -14 6 -6 3 7 2 16 -1 19 -3 4 -6 -2 -5 -13z"/>
<path d="M270 455 c0 -9 6 -12 15 -9 8 4 15 7 15 9 0 2 -7 5 -15 9 -9 3 -15 0
-15 -9z"/>
<path d="M700 458 c0 -4 7 -8 15 -8 8 0 15 4 15 8 0 5 -7 9 -15 9 -8 0 -15 -4
-15 -9z"/>
<path d="M668 453 c7 -3 16 -2 19 1 4 3 -2 6 -13 5 -11 0 -14 -3 -6 -6z"/>
<path d="M1000 453 c14 -6 13 -24 -1 -20 -6 1 -14 -5 -16 -13 -4 -12 -3 -12 5
-2 5 8 13 13 18 13 14 -1 10 22 -4 25 -7 1 -8 0 -2 -3z"/>
<path d="M280 426 c0 -5 12 -30 27 -55 22 -39 23 -43 5 -28 -11 10 -26 32 -32
48 -7 16 -15 27 -18 25 -17 -18 101 -156 159 -186 28 -15 21 -8 -43 44 -27 20
-48 42 -48 47 0 6 21 -8 48 -29 44 -37 92 -68 92 -59 0 2 -22 18 -49 36 -50
32 -95 81 -124 136 -9 17 -16 26 -17 21z"/>
<path d="M369 401 l-24 -20 22 -1 c16 0 21 -4 16 -16 -4 -11 0 -15 13 -14 34
4 54 0 54 -10 0 -6 -11 -8 -25 -4 -19 5 -25 2 -25 -10 0 -9 5 -16 11 -16 5 0
7 5 3 11 -4 7 -1 10 7 7 8 -3 13 -14 11 -24 -2 -16 1 -15 17 6 21 26 13 50
-16 50 -8 0 -11 5 -8 10 3 6 -1 10 -10 10 -9 0 -14 4 -11 8 2 4 1 14 -3 20 -6
10 -14 8 -32 -7z"/>
<path d="M1080 385 c-11 -13 -11 -20 0 -40 17 -32 28 -32 26 0 0 16 -6 23 -13
20 -7 -2 -13 0 -13 5 0 14 24 12 38 -2 17 -17 28 -2 12 17 -16 19 -34 19 -50
0z"/>
<path d="M485 310 c-3 -5 4 -10 17 -11 l23 -1 -24 -7 c-28 -8 -40 -31 -16 -31
9 0 13 5 10 10 -3 6 -2 10 4 10 5 0 11 -10 13 -22 3 -21 5 -20 21 11 9 19 16
35 15 36 -12 9 -58 13 -63 5z"/>
<path d="M996 290 c6 -31 5 -33 -10 -21 -9 7 -16 20 -16 28 0 8 -4 12 -9 8 -6
-3 -6 -17 0 -35 10 -26 13 -28 35 -18 28 13 30 27 9 54 -15 18 -16 17 -9 -16z"/>
<path d="M573 269 c1 -12 -4 -24 -12 -27 -10 -3 -12 0 -8 12 4 9 2 16 -3 16
-17 0 -11 -32 8 -46 16 -12 15 -13 -8 -14 -21 -1 -18 -4 15 -16 22 -8 46 -13
55 -10 9 2 6 4 -7 5 -30 1 -45 31 -28 55 14 18 10 46 -6 46 -5 0 -8 -10 -6
-21z"/>
<path d="M871 280 c-24 -5 -42 -30 -23 -30 5 0 9 -8 8 -17 0 -10 8 -19 19 -21
17 -4 18 -2 6 12 -15 18 -1 22 17 4 9 -9 12 -6 12 14 0 36 18 45 26 13 5 -22
25 -37 23 -17 -4 43 -31 56 -88 42z m9 -20 c0 -5 -4 -10 -10 -10 -5 0 -10 5
-10 10 0 6 5 10 10 10 6 0 10 -4 10 -10z"/>
<path d="M613 247 c-2 -30 0 -33 27 -35 28 -2 30 0 30 30 l-1 33 -13 -30 c-8
-20 -15 -25 -20 -17 -4 7 -3 19 3 26 11 14 5 26 -13 26 -6 0 -12 -15 -13 -33z"/>
<path d="M785 272 c-11 -2 -24 -9 -30 -14 -7 -7 -2 -8 15 -3 l25 6 -24 -19
c-25 -20 -22 -42 6 -42 13 0 13 3 3 15 -10 12 -10 15 4 15 9 0 16 -8 16 -17 0
-11 3 -13 9 -8 5 6 7 24 3 40 -5 24 -12 30 -27 27z"/>
<path d="M684 258 c-5 -7 -2 -9 8 -5 25 9 30 -5 8 -20 -20 -14 -19 -33 1 -33
6 0 8 4 4 9 -3 5 -1 12 5 16 5 3 10 -1 10 -9 0 -9 5 -16 12 -16 32 0 -12 -19
-52 -23 -38 -3 -36 -4 18 -5 57 -2 77 7 52 23 -5 3 -10 22 -10 41 0 29 -3 34
-24 34 -14 0 -28 -5 -32 -12z"/>
<path d="M490 220 c8 -5 20 -10 25 -10 6 0 3 5 -5 10 -8 5 -19 10 -25 10 -5 0
-3 -5 5 -10z"/>
<path d="M490 195 c14 -8 32 -14 40 -14 8 0 0 6 -19 14 -42 19 -54 19 -21 0z"/>
<path d="M558 173 c7 -3 16 -2 19 1 4 3 -2 6 -13 5 -11 0 -14 -3 -6 -6z"/>
<path d="M645 150 c4 -6 16 -8 27 -4 12 3 18 2 15 -3 -4 -6 6 -21 21 -34 20
-18 23 -19 12 -4 -8 11 -19 23 -25 27 -7 5 -6 8 1 8 5 0 16 -6 23 -12 10 -11
12 -10 9 2 -4 19 -24 28 -61 29 -17 1 -26 -3 -22 -9z"/>
<path d="M780 153 c-32 -6 -45 -19 -29 -28 8 -5 10 -4 5 3 -4 7 -3 12 2 12 16
0 22 -13 11 -27 -9 -10 70 28 90 44 6 4 -47 1 -79 -4z m30 -13 c-8 -5 -19 -10
-25 -10 -5 0 -3 5 5 10 8 5 20 10 25 10 6 0 3 -5 -5 -10z"/>
<path d="M730 71 c0 -5 5 -13 10 -16 6 -3 10 -2 10 4 0 5 -4 13 -10 16 -5 3
-10 2 -10 -4z"/>
</g>
</svg>
